<?xml version="1.0" standalone="no"?>
<!DOCTYPE svg PUBLIC "-//W3C//DTD SVG 20010904//EN"
 "http://www.w3.org/TR/2001/REC-SVG-20010904/DTD/svg10.dtd">
<svg version="1.0" xmlns="http://www.w3.org/2000/svg"
 width="640.000000pt" height="640.000000pt" viewBox="0 0 640.000000 640.000000"
 preserveAspectRatio="xMidYMid meet">

<g transform="translate(0.000000,640.000000) scale(0.100000,-0.100000)"
fill="#000000" stroke="none">
<path d="M2711 4920 c74 -39 128 -124 148 -236 7 -38 11 -339 11 -867 l0 -810
-172 6 c-137 4 -187 9 -238 26 -85 27 -172 80 -237 143 l-52 51 -3 426 -3 426
-27 50 c-63 120 -175 181 -363 199 l-60 6 43 -21 c55 -28 106 -88 134 -158
l23 -56 5 -805 c6 -880 2 -826 64 -908 57 -78 179 -135 311 -147 69 -6 70 -6
40 11 -76 42 -126 113 -149 214 -12 51 -16 133 -16 378 l0 314 48 -39 c146
-120 242 -152 484 -160 l167 -6 3 -506 c3 -500 3 -507 25 -551 51 -103 153
-169 299 -195 121 -21 138 -20 86 6 -55 28 -107 89 -132 157 -32 85 -39 212
-40 668 l0 422 146 7 c200 10 1086 -3 1149 -17 73 -16 122 -44 182 -104 103
-102 159 -274 136 -411 -24 -140 -131 -289 -248 -347 -141 -69 -331 -31 -444
89 -40 43 -101 139 -101 160 0 3 28 5 63 5 94 0 148 41 167 127 32 138 -93
252 -213 194 -77 -37 -107 -119 -87 -242 28 -185 155 -337 329 -394 85 -28
217 -18 302 22 305 143 374 582 131 830 -65 66 -153 110 -249 126 -38 6 -69
12 -71 13 -2 1 10 29 27 63 64 126 84 204 89 352 10 282 -69 474 -276 679
-147 145 -300 238 -492 298 -124 39 -213 53 -390 61 l-145 6 -5 115 c-6 130
-22 171 -86 234 -64 62 -212 116 -314 115 l-35 0 36 -19z m773 -534 c178 -50
298 -119 432 -251 109 -108 144 -154 199 -265 119 -235 118 -574 -2 -813 l-23
-47 -488 2 c-268 2 -486 6 -484 11 1 4 2 318 2 698 l0 691 153 -5 c95 -3 174
-11 211 -21z"/>
</g>
</svg>
